<?xml version="1.0" encoding="utf-8"?>
<!-- Generator: Adobe Illustrator 19.1.0, SVG Export Plug-In . SVG Version: 6.00 Build 0)  -->
<svg version="1.1" id="Layer_1" xmlns="http://www.w3.org/2000/svg" xmlns:xlink="http://www.w3.org/1999/xlink" x="0px" y="0px"
	 viewBox="0 0 300 300" style="enable-background:new 0 0 300 300;" xml:space="preserve">
<style type="text/css">
	.st0{fill:#B4B4B5;stroke:#231815;stroke-miterlimit:10;}
	.st1{fill:#548FD4;}
	.st2{fill:#FFFFFF;}
	.st3{fill:#FBFBFB;}
	.st4{fill-rule:evenodd;clip-rule:evenodd;fill:#9BA8B6;}
	.st5{fill-rule:evenodd;clip-rule:evenodd;fill:#415C7C;}
	.st6{fill:#9BA8B6;}
	.st7{fill-rule:evenodd;clip-rule:evenodd;fill:#EE9A3B;}
	.st8{fill:#FEFEFE;}
	.st9{fill-rule:evenodd;clip-rule:evenodd;fill:#FFFFFF;}
	.st10{fill-rule:evenodd;clip-rule:evenodd;fill:#548FD4;}
	.st11{fill:#E0CF00;}
	.st12{fill:#415C7C;}
	.st13{fill:none;stroke:#1E1F1F;stroke-width:4;stroke-linejoin:round;stroke-miterlimit:10;}
	.st14{fill:#F5A623;}
	.st15{fill:#F8E71C;}
	.st16{fill:#7ED321;}
	.st17{fill-rule:evenodd;clip-rule:evenodd;fill:#ADC6E2;}
	.st18{fill-rule:evenodd;clip-rule:evenodd;fill:#F8E71C;}
</style>
<g>
	<path class="st6" d="M166,203.9c-18.7,0-36.3-7.3-49.5-20.5c-3.4-3.4-6.3-7-8.9-10.8l22.2-14.9c1.6,2.4,3.5,4.7,5.6,6.8
		c16.3,16.3,44.8,16.4,61.2,0l64-64c16.9-16.9,16.9-44.3,0-61.2c-16.9-16.9-44.4-16.8-61.2,0l-40,40l-18.9-18.9l40-40
		c27.3-27.3,71.6-27.3,98.9,0c27.3,27.3,27.3,71.7,0,99l-64,64C202.3,196.7,184.7,203.9,166,203.9z"/>
	<path class="st6" d="M70,300c-18.7,0-36.3-7.3-49.5-20.5C7.3,266.3,0,248.7,0,230c0-18.7,7.3-36.3,20.5-49.5l64-64
		c27.3-27.3,71.7-27.3,99,0c3.4,3.4,6.3,7,8.9,10.8l-22.3,14.8c-1.6-2.4-3.4-4.6-5.5-6.7c-16.8-16.8-44.3-16.8-61.2,0l-64,64
		c-8.2,8.2-12.7,19-12.7,30.6c0,11.6,4.5,22.4,12.7,30.6c16.3,16.3,44.8,16.3,61.2,0l40-40l18.9,18.9l-40,40
		C106.2,292.7,88.7,300,70,300z"/>
</g>
</svg>
