<?xml version="1.0" encoding="utf-8"?>
<!-- Generator: Adobe Illustrator 19.1.0, SVG Export Plug-In . SVG Version: 6.00 Build 0)  -->
<svg version="1.1" id="Capa_1" xmlns="http://www.w3.org/2000/svg" xmlns:xlink="http://www.w3.org/1999/xlink" x="0px" y="0px"
	 viewBox="-164 42.3 512 512" style="enable-background:new -164 42.3 512 512;" xml:space="preserve">
<style type="text/css">
	.st0{fill:#153489;}
	.st1{fill:#081B4F;}
	.st2{fill:#FF4F19;}
	.st3{fill:#CA1E00;}
	.st4{fill:#FFFFFF;}
	.st5{fill:#E1E1E3;}
	.st6{fill:#4B5BE5;}
	.st7{fill:#1C2EDE;}
	.st8{fill:#00E8F2;}
	.st9{fill:#00B7BE;}
</style>
<circle class="st0" cx="92" cy="298.3" r="256"/>
<path class="st1" d="M346.6,324.7L116.6,94.6C107.4,84.4,98.7,79.9,92,79.9c-21.8,0-64.8,47.2-79.2,191.4l-51.9,48v90L8,452.1v10
	l92,92C228.8,550.2,333.7,451.1,346.6,324.7z"/>
<polygon class="st2" points="21.4,263.4 -39.1,319.4 -39.1,409.3 21.4,348.5 "/>
<polygon class="st3" points="162.6,263.4 223.1,319.4 223.1,409.3 162.6,348.5 "/>
<path class="st4" d="M92,79.9c-26.5,0-84,69.3-84,296.9h168C176,149.3,118.5,79.9,92,79.9z"/>
<path class="st5" d="M176,375v1.9H92V79.9C118.4,79.9,175.7,148.9,176,375z"/>
<rect x="8" y="375" class="st6" width="168" height="87.2"/>
<rect x="92" y="375" class="st7" width="84" height="87.2"/>
<circle class="st6" cx="92" cy="256.9" r="58.9"/>
<path class="st7" d="M150.9,256.9c0,32.5-26.4,58.9-58.9,58.9V198C124.5,198,150.9,224.4,150.9,256.9z"/>
<circle class="st8" cx="92" cy="256.9" r="39.8"/>
<path class="st9" d="M131.8,256.9c0,22-17.8,39.8-39.8,39.8v-79.6C114,217.1,131.8,234.9,131.8,256.9z"/>
<rect x="68.5" y="414.6" class="st2" width="47.1" height="106"/>
<rect x="92" y="414.6" class="st3" width="23.5" height="106"/>
</svg>
